<svg width="346" height="127" viewBox="0 0 346 127" fill="none" xmlns="http://www.w3.org/2000/svg">
<path d="M2.5175 2.75499V122H46.8085V81.9677H67.5912V122H111.882V2.75499H67.5912V42.9576H46.8085V2.75499H2.5175ZM126.735 75.3241C126.735 102.921 146.155 123.704 178.01 123.704C209.865 123.704 229.456 102.921 229.456 75.3241V2.75499H185.165V74.813C185.165 78.7311 182.439 82.6491 178.01 82.6491C173.581 82.6491 171.026 78.7311 171.026 74.813V2.75499H126.735V75.3241ZM244.235 2.75499V122H294.658C321.233 122 343.379 113.994 343.379 87.0782C343.379 76.8572 339.12 68.5101 330.943 62.3775C339.12 56.4152 343.379 47.8977 343.379 37.6767C343.379 10.7614 321.233 2.75499 294.658 2.75499H244.235ZM292.955 73.7909C297.384 73.7909 300.45 78.0497 300.45 81.9677C300.45 86.2265 296.703 90.1445 291.592 90.1445C289.718 90.1445 289.037 89.6335 288.526 89.1224V74.9834C289.548 73.9613 291.251 73.7909 292.955 73.7909ZM288.526 35.6325C289.037 35.1215 289.718 34.6104 291.592 34.6104C296.703 34.6104 300.45 38.5285 300.45 42.7872C300.45 46.7053 297.384 50.964 292.955 50.964C291.251 50.964 289.548 50.7937 288.526 49.7716V35.6325Z" fill="#F72585" fill-opacity="0.16"/>
<path d="M2.5175 2.75499V0.254988H0.0175004V2.75499H2.5175ZM2.5175 122H0.0175004V124.5H2.5175V122ZM46.8085 122V124.5H49.3085V122H46.8085ZM46.8085 81.9677V79.4677H44.3085V81.9677H46.8085ZM67.5912 81.9677H70.0912V79.4677H67.5912V81.9677ZM67.5912 122H65.0912V124.5H67.5912V122ZM111.882 122V124.5H114.382V122H111.882ZM111.882 2.75499H114.382V0.254988H111.882V2.75499ZM67.5912 2.75499V0.254988H65.0912V2.75499H67.5912ZM67.5912 42.9576V45.4576H70.0912V42.9576H67.5912ZM46.8085 42.9576H44.3085V45.4576H46.8085V42.9576ZM46.8085 2.75499H49.3085V0.254988H46.8085V2.75499ZM0.0175004 2.75499V122H5.0175V2.75499H0.0175004ZM2.5175 124.5H46.8085V119.5H2.5175V124.5ZM49.3085 122V81.9677H44.3085V122H49.3085ZM46.8085 84.4677H67.5912V79.4677H46.8085V84.4677ZM65.0912 81.9677V122H70.0912V81.9677H65.0912ZM67.5912 124.5H111.882V119.5H67.5912V124.5ZM114.382 122V2.75499H109.382V122H114.382ZM111.882 0.254988H67.5912V5.25499H111.882V0.254988ZM65.0912 2.75499V42.9576H70.0912V2.75499H65.0912ZM67.5912 40.4576H46.8085V45.4576H67.5912V40.4576ZM49.3085 42.9576V2.75499H44.3085V42.9576H49.3085ZM46.8085 0.254988H2.5175V5.25499H46.8085V0.254988ZM229.456 2.75499H231.956V0.254988H229.456V2.75499ZM185.165 2.75499V0.254988H182.665V2.75499H185.165ZM171.026 2.75499H173.526V0.254988H171.026V2.75499ZM126.735 2.75499V0.254988H124.235V2.75499H126.735ZM124.235 75.3241C124.235 89.7223 129.311 102.486 138.678 111.65C148.047 120.815 161.526 126.204 178.01 126.204V121.204C162.639 121.204 150.48 116.2 142.175 108.076C133.868 99.9491 129.235 88.5226 129.235 75.3241H124.235ZM178.01 126.204C194.494 126.204 208.012 120.816 217.423 111.654C226.832 102.492 231.956 89.7287 231.956 75.3241H226.956C226.956 88.5161 222.284 99.9423 213.935 108.071C205.586 116.2 193.382 121.204 178.01 121.204V126.204ZM231.956 75.3241V2.75499H226.956V75.3241H231.956ZM229.456 0.254988H185.165V5.25499H229.456V0.254988ZM182.665 2.75499V74.813H187.665V2.75499H182.665ZM182.665 74.813C182.665 77.7747 180.669 80.1491 178.01 80.1491V85.1491C184.209 85.1491 187.665 79.6874 187.665 74.813H182.665ZM178.01 80.1491C175.424 80.1491 173.526 77.8633 173.526 74.813H168.526C168.526 79.5989 171.738 85.1491 178.01 85.1491V80.1491ZM173.526 74.813V2.75499H168.526V74.813H173.526ZM171.026 0.254988H126.735V5.25499H171.026V0.254988ZM124.235 2.75499V75.3241H129.235V2.75499H124.235ZM244.235 2.75499V0.254988H241.735V2.75499H244.235ZM244.235 122H241.735V124.5H244.235V122ZM330.943 62.3775L329.47 60.3575L326.739 62.3492L329.443 64.3775L330.943 62.3775ZM288.526 89.1224H286.026V90.158L286.758 90.8902L288.526 89.1224ZM288.526 74.9834L286.758 73.2156L286.026 73.9479V74.9834H288.526ZM288.526 35.6325L286.758 33.8648L286.026 34.597V35.6325H288.526ZM288.526 49.7716H286.026V50.8071L286.758 51.5394L288.526 49.7716ZM241.735 2.75499V122H246.735V2.75499H241.735ZM244.235 124.5H294.658V119.5H244.235V124.5ZM294.658 124.5C308.115 124.5 320.842 122.488 330.279 116.771C339.92 110.93 345.879 101.369 345.879 87.0782H340.879C340.879 99.7031 335.764 107.602 327.689 112.494C319.41 117.509 307.777 119.5 294.658 119.5V124.5ZM345.879 87.0782C345.879 76.0551 341.237 66.973 332.443 60.3775L329.443 64.3775C337.003 70.0472 340.879 77.6594 340.879 87.0782H345.879ZM332.416 64.3975C341.252 57.9544 345.879 48.6789 345.879 37.6767H340.879C340.879 47.1166 336.987 54.8761 329.47 60.3575L332.416 64.3975ZM345.879 37.6767C345.879 23.3863 339.92 13.8246 330.279 7.98435C320.842 2.26733 308.115 0.254988 294.658 0.254988V5.25499C307.777 5.25499 319.41 7.24587 327.689 12.2609C335.764 17.1527 340.879 25.0519 340.879 37.6767H345.879ZM294.658 0.254988H244.235V5.25499H294.658V0.254988ZM292.955 76.2909C295.636 76.2909 297.95 79.032 297.95 81.9677H302.95C302.95 77.0674 299.132 71.2909 292.955 71.2909V76.2909ZM297.95 81.9677C297.95 84.7493 295.42 87.6445 291.592 87.6445V92.6445C297.985 92.6445 302.95 87.7037 302.95 81.9677H297.95ZM291.592 87.6445C290.874 87.6445 290.578 87.5454 290.495 87.5113C290.449 87.4927 290.423 87.484 290.294 87.3547L286.758 90.8902C287.14 91.272 287.71 91.7743 288.601 92.139C289.455 92.4881 290.436 92.6445 291.592 92.6445V87.6445ZM291.026 89.1224V74.9834H286.026V89.1224H291.026ZM290.294 76.7512C290.354 76.6913 290.535 76.5536 291.027 76.4444C291.525 76.3337 292.16 76.2909 292.955 76.2909V71.2909C292.046 71.2909 290.978 71.3333 289.943 71.5634C288.901 71.7948 287.72 72.2534 286.758 73.2156L290.294 76.7512ZM290.294 37.4003C290.423 37.271 290.449 37.2623 290.495 37.2437C290.578 37.2095 290.874 37.1104 291.592 37.1104V32.1104C290.436 32.1104 289.455 32.2669 288.601 32.616C287.71 32.9807 287.14 33.483 286.758 33.8648L290.294 37.4003ZM291.592 37.1104C295.42 37.1104 297.95 40.0057 297.95 42.7872H302.95C302.95 37.0513 297.985 32.1104 291.592 32.1104V37.1104ZM297.95 42.7872C297.95 45.723 295.636 48.464 292.955 48.464V53.464C299.132 53.464 302.95 47.6876 302.95 42.7872H297.95ZM292.955 48.464C292.16 48.464 291.525 48.4212 291.027 48.3106C290.535 48.2013 290.354 48.0637 290.294 48.0038L286.758 51.5394C287.72 52.5015 288.901 52.9602 289.943 53.1916C290.978 53.4217 292.046 53.464 292.955 53.464V48.464ZM291.026 49.7716V35.6325H286.026V49.7716H291.026Z" fill="#F83B91"/>
</svg>
